<svg width="16" height="16" viewBox="0 0 16 16" fill="none" xmlns="http://www.w3.org/2000/svg">
<path fill-rule="evenodd" clip-rule="evenodd" d="M1.81226 8.00024C1.81226 4.58271 4.58222 1.81274 7.99976 1.81274C11.4173 1.81274 14.1873 4.58271 14.1873 8.00024C14.1873 11.4178 11.4173 14.1877 7.99976 14.1877C4.58222 14.1877 1.81226 11.4178 1.81226 8.00024ZM7.99976 0.312744C3.75379 0.312744 0.312256 3.75428 0.312256 8.00024C0.312256 12.2462 3.75379 15.6877 7.99976 15.6877C12.2457 15.6877 15.6873 12.2462 15.6873 8.00024C15.6873 3.75428 12.2457 0.312744 7.99976 0.312744ZM8.49585 4.88501C8.49585 4.4708 8.16006 4.13501 7.74585 4.13501C7.33164 4.13501 6.99585 4.4708 6.99585 4.88501V8.52026C6.99585 8.78439 7.13478 9.02904 7.36161 9.16436L10.1891 10.8511C10.5448 11.0633 11.0052 10.947 11.2174 10.5912C11.4297 10.2355 11.3133 9.77512 10.9576 9.56291L8.49585 8.09436V4.88501Z" fill="#DFE5F2" fill-opacity="0.6"/>
</svg>
